<svg version="1.0" viewBox=" 0 0 1845.000000 940.000000" preserveAspectRatio="xMidYMid meet">

	<g transform="translate(0.000000,940.000000) scale(0.100000,-0.100000)" fill="#000000" stroke="none">
		<path d="M8775 8659 c-172 -21 -465 -100 -465 -125 0 -8 25 -142 55 -300 31
-158 54 -288 53 -290 -2 -1 -60 -12 -128 -24 -336 -57 -776 -192 -1012 -311
-42 -21 -58 -25 -65 -16 -6 7 -77 139 -158 295 -99 188 -154 282 -164 282 -33
0 -200 -50 -282 -85 -295 -124 -595 -381 -823 -703 l-59 -84 24 -23 c22 -20
428 -393 438 -402 3 -2 -33 -43 -80 -91 -46 -48 -95 -99 -108 -114 l-23 -27
75 30 c151 58 353 62 501 10 49 -17 63 -19 77 -8 10 6 59 46 111 88 486 396
1082 647 1768 746 180 25 742 26 915 0 476 -70 886 -203 1258 -408 1114 -614
1770 -1729 1734 -2944 -8 -248 -37 -463 -92 -678 l-7 -27 228 2 229 3 22 110
c48 240 58 352 58 680 0 245 -4 338 -18 443 -11 74 -17 135 -15 137 1 2 116
20 253 39 138 20 262 39 278 42 27 6 27 7 27 82 0 349 -89 729 -235 1017 -45
88 -183 305 -194 305 -3 0 -129 -65 -280 -145 -151 -80 -275 -144 -276 -143
-1 2 -19 32 -40 68 -131 222 -317 467 -489 647 l-104 109 229 239 c126 132
229 244 229 249 0 5 -21 34 -47 65 -250 298 -491 496 -768 631 -111 55 -278
118 -351 134 l-31 7 -133 -298 c-74 -164 -135 -300 -136 -302 -2 -2 -78 29
-169 68 -272 117 -599 220 -832 261 -40 7 -73 18 -73 24 0 6 20 147 46 314 25
167 44 306 41 309 -12 12 -233 66 -367 89 -164 29 -481 41 -625 23z" />
		<path d="M9244 6574 c-17 -8 -43 -27 -57 -42 -26 -29 -537 -748 -537 -757 0
-3 65 -5 143 -5 l144 0 187 265 c103 146 191 265 194 265 4 -1 55 -73 115
-160 l107 -160 -174 0 c-130 0 -175 -3 -179 -12 -3 -7 -35 -53 -71 -101 -36
-48 -66 -90 -66 -93 0 -2 209 -4 465 -4 256 0 465 2 465 4 0 9 -503 733 -528
760 -51 55 -143 72 -208 40z" />
		<path d="M7587 6513 c-29 -38 -66 -85 -82 -105 l-27 -38 363 0 c380 0 427 -4
454 -43 22 -32 19 -80 -8 -105 -38 -35 -112 -42 -471 -42 l-341 0 2 -202 2
-203 120 -3 120 -3 3 108 3 108 190 2 190 2 93 -109 92 -110 160 0 c88 0 160
3 160 8 0 4 -55 64 -123 133 l-123 126 47 16 c99 36 169 158 155 270 -18 134
-119 218 -298 247 -35 5 -190 10 -345 10 l-282 0 -54 -67z" />
		<path d="M10092 6478 l-80 -103 295 -3 295 -2 -112 -86 c-273 -210 -407 -318
-427 -347 -45 -62 -18 -136 55 -157 22 -6 188 -10 417 -10 l381 0 69 97 c39
53 72 100 73 105 2 4 -131 8 -295 8 l-298 1 30 22 c16 12 137 107 269 211 264
209 279 227 254 295 -26 70 -33 71 -465 71 l-382 0 -79 -102z" />
		<path d="M6155 6545 c-151 -33 -279 -108 -393 -230 -41 -44 -176 -229 -326
-447 -140 -205 -689 -1005 -1219 -1778 l-964 -1405 511 -3 c281 -1 516 0 522
2 6 2 458 657 1004 1455 546 798 995 1451 999 1451 3 -1 197 -293 431 -650
l425 -650 538 0 538 0 -234 348 c-129 191 -424 633 -657 982 -393 590 -430
642 -519 731 -81 80 -112 104 -183 138 -138 67 -324 89 -473 56z" />
		<path fill="#3ebeee" d="M7456 5648 c21 -34 1808 -2605 1819 -2616 10 -11 13 0 18 55 14 168
97 282 244 335 68 24 281 36 350 20 42 -10 43 -10 51 22 5 17 89 342 188 721
l179 690 5 -710 5 -710 378 -3 377 -2 0 1105 0 1105 -617 -2 -618 -3 -200
-845 c-111 -465 -203 -851 -206 -858 -2 -7 -267 374 -589 847 l-585 861 -403
0 c-320 0 -402 -3 -396 -12z" />
		<path d="M7240 4154 c0 -3 14 -25 30 -50 l31 -44 536 0 535 0 -16 25 c-9 14
-23 36 -32 50 l-16 25 -534 0 c-294 0 -534 -3 -534 -6z" />
		<path d="M7390 3930 c0 -6 12 -28 26 -50 l27 -40 539 0 540 0 -34 48 -34 47
-532 3 c-360 1 -532 -1 -532 -8z" />
		<path d="M7546 3698 c4 -7 19 -28 32 -45 l24 -33 529 0 c291 0 529 2 529 5 0
3 -12 23 -26 45 l-27 40 -534 0 c-425 0 -533 -3 -527 -12z" />
		<path d="M7710 3484 c0 -3 16 -25 35 -48 19 -24 35 -47 35 -51 0 -4 -204 -6
-452 -5 -249 2 -759 3 -1133 2 l-680 -2 -240 -341 c-132 -188 -241 -345 -243
-350 -2 -5 893 -9 2128 -9 1180 0 2130 4 2128 9 -1 4 -122 186 -268 404 l-265
396 -522 1 c-288 0 -523 -3 -523 -6z" />
		<path fill="#3ebeee" d="M9642 3320 c-57 -12 -139 -58 -161 -89 -56 -79 -77 -181 -60 -295 18
-133 83 -210 204 -241 121 -31 280 -12 360 43 82 56 124 194 104 336 -23 168
-117 245 -308 252 -53 2 -115 -1 -139 -6z m249 -176 c41 -21 59 -63 59 -139 0
-127 -39 -159 -195 -159 -156 0 -195 32 -195 159 0 103 27 140 115 156 56 11
183 1 216 -17z" />
		<path fill="#3ebeee" d="M10921 3314 c-95 -25 -145 -66 -183 -149 -19 -42 -23 -67 -23 -160 0
-93 4 -118 23 -160 30 -65 73 -108 136 -136 44 -20 68 -23 176 -24 110 0 131
3 177 24 62 27 125 92 144 147 21 58 18 258 -4 306 -23 51 -73 106 -116 127
-81 41 -229 52 -330 25z m265 -169 c82 -34 85 -238 4 -280 -73 -38 -253 -26
-299 19 -48 48 -49 185 -2 238 19 21 40 32 76 38 61 11 179 3 221 -15z" />
		<path fill="#3ebeee" d="M10182 3246 c-23 -40 -42 -76 -42 -79 0 -4 46 -8 103 -9 l102 -3 3
-232 2 -233 70 0 70 0 2 233 3 232 85 3 85 3 40 72 c22 39 42 75 43 79 2 5
-115 8 -260 8 l-264 0 -42 -74z" />
		<path fill="#3ebeee" d="M11553 3308 c-16 -21 -83 -138 -83 -146 0 -4 99 -7 221 -7 220 0 221
0 240 -24 24 -30 24 -62 0 -92 -19 -24 -21 -24 -245 -27 l-226 -3 0 -160 0
-159 75 0 75 0 0 85 0 85 109 0 108 0 52 -85 53 -85 94 0 c52 0 94 2 94 5 0 7
-98 146 -124 174 -14 16 -17 25 -9 28 63 23 106 103 106 198 1 115 -45 180
-150 211 -62 19 -376 20 -390 2z" />
		<path fill="#3ebeee" d="M12285 3307 c-83 -33 -114 -82 -115 -179 0 -87 30 -145 90 -171 14
-6 104 -13 200 -16 l175 -6 3 -28 c6 -54 -3 -57 -208 -57 l-188 0 -27 -47
c-15 -27 -37 -63 -48 -81 l-19 -33 258 3 c253 3 260 4 298 27 51 32 76 87 76
171 0 79 -21 126 -70 155 -31 17 -58 21 -215 25 l-180 5 -3 33 c-5 46 20 52
207 52 115 0 161 3 168 13 5 6 26 42 47 80 l37 67 -228 -1 c-149 0 -238 -5
-258 -12z" />
		<path d="M794 1430 c-22 -11 -54 -35 -71 -53 -24 -26 -616 -855 -677 -949
l-18 -28 190 0 190 0 228 323 c125 177 234 330 243 339 15 16 26 3 154 -185
l137 -202 -217 -5 -217 -5 -92 -125 c-51 -69 -93 -128 -93 -132 -1 -5 269 -8
600 -8 l601 0 -64 92 c-620 899 -619 898 -672 929 -65 37 -158 41 -222 9z" />
		<path d="M4134 1430 c-22 -11 -54 -35 -71 -53 -24 -26 -616 -855 -677 -949
l-18 -28 190 0 190 0 228 323 c125 177 234 330 243 339 15 16 26 3 154 -185
l137 -202 -217 -5 -217 -5 -92 -125 c-51 -69 -93 -128 -93 -132 -1 -5 269 -8
600 -8 l601 0 -64 92 c-620 899 -619 898 -672 929 -65 37 -158 41 -222 9z" />
		<path fill="#3ebeee" d="M7465 1426 c-22 -13 -49 -39 -59 -57 -10 -18 -81 -242 -156 -498
l-137 -466 155 -3 c85 -1 157 -1 159 1 4 5 101 358 141 517 l29 115 55 -110
c119 -234 249 -470 275 -497 68 -71 235 -60 290 18 30 45 87 150 204 379 59
115 110 203 112 195 3 -8 35 -132 73 -275 37 -143 73 -278 80 -300 l11 -40
163 -3 c128 -2 161 0 158 10 -3 7 -65 222 -139 478 -114 395 -138 469 -163
498 -41 46 -76 62 -141 62 -62 0 -97 -14 -137 -57 -23 -24 -276 -461 -345
-597 l-25 -49 -58 110 c-104 198 -282 507 -309 537 -55 61 -163 75 -236 32z" />
		<path fill="#3ebeee" d="M9558 1440 c-96 -15 -180 -40 -253 -75 -178 -85 -257 -220 -259 -440
-2 -325 174 -490 568 -534 248 -28 505 -1 664 70 183 82 268 211 279 424 9
169 -31 289 -127 386 -68 69 -152 113 -279 146 -87 23 -117 26 -316 29 -121 1
-246 -1 -277 -6z m452 -270 c113 -18 169 -48 200 -109 42 -83 34 -242 -16
-308 -55 -72 -148 -95 -388 -95 -259 0 -350 23 -403 104 -24 36 -28 53 -32
131 -4 103 10 162 46 202 34 36 97 63 170 74 83 12 347 13 423 1z" />
		<path fill="#3ebeee" d="M12438 1440 c-96 -15 -180 -40 -253 -75 -178 -85 -257 -220 -259
-440 -2 -325 174 -490 568 -534 248 -28 505 -1 664 70 183 82 268 211 279 424
9 169 -31 289 -127 386 -68 69 -152 113 -279 146 -87 23 -117 26 -316 29 -121
1 -246 -1 -277 -6z m452 -270 c113 -18 169 -48 200 -109 42 -83 34 -242 -16
-308 -55 -72 -148 -95 -388 -95 -259 0 -350 23 -403 104 -24 36 -28 53 -32
131 -4 103 10 162 46 202 34 36 97 63 170 74 83 12 347 13 423 1z" />
		<path d="M1977 1315 c-54 -70 -101 -133 -104 -141 -4 -12 69 -14 481 -14 460
0 489 -1 524 -19 84 -43 81 -145 -5 -187 -35 -18 -71 -19 -525 -22 l-488 -3 0
-264 0 -265 165 0 165 0 0 135 0 135 244 0 244 0 113 -135 114 -135 212 0
c117 0 213 3 213 6 0 4 -72 79 -160 169 l-160 162 38 11 c134 40 222 168 222
322 0 172 -101 286 -307 342 -72 20 -106 22 -483 25 l-405 4 -98 -126z" />
		<path d="M5231 1307 c-55 -73 -101 -137 -101 -141 0 -5 170 -7 378 -4 l377 4
-125 -95 c-164 -125 -497 -387 -534 -420 -84 -77 -80 -193 9 -235 29 -14 99
-16 548 -16 l515 0 89 122 c49 68 93 129 97 136 6 10 -64 12 -378 10 -212 -2
-386 -2 -386 -1 0 1 28 23 63 49 34 27 187 147 339 268 231 182 282 227 299
263 37 76 2 157 -79 181 -28 9 -181 12 -524 12 l-485 0 -102 -133z" />
		<path fill="#3ebeee" d="M10813 1418 c-30 -35 -193 -247 -193 -253 0 -3 108 -5 240 -5 l240 0
0 -380 0 -380 165 0 165 0 0 380 0 380 178 0 c97 0 182 4 188 8 13 9 204 258
204 266 0 3 -262 6 -583 6 l-584 0 -20 -22z" />
		<path fill="#3ebeee" d="M13707 1315 c-54 -70 -101 -133 -104 -141 -4 -12 69 -14 481 -14 460
0 489 -1 524 -19 84 -43 81 -145 -5 -187 -35 -18 -71 -19 -525 -22 l-488 -3 0
-264 0 -265 165 0 165 0 0 135 0 135 244 0 244 0 113 -135 114 -135 212 0
c117 0 213 3 213 6 0 4 -72 79 -160 169 l-160 162 38 11 c134 40 222 168 222
322 0 172 -101 286 -307 342 -72 20 -106 22 -483 25 l-405 4 -98 -126z" />
		<path fill="#3ebeee" d="M15470 1429 c-138 -20 -237 -81 -285 -173 -25 -50 -30 -70 -30 -135
0 -101 22 -158 84 -213 94 -84 175 -98 606 -98 364 0 365 0 365 -70 0 -72 10
-70 -466 -70 l-421 0 -102 -132 -103 -133 524 -3 c558 -3 612 1 708 44 102 46
151 113 171 231 22 127 -23 238 -117 290 -86 48 -134 53 -499 53 -336 0 -410
6 -426 32 -15 23 -10 74 9 91 17 15 60 17 410 17 l391 0 97 128 c54 70 102
133 107 140 8 9 -90 12 -479 11 -269 -1 -514 -5 -544 -10z" />
	</g>
</svg>
