<svg xmlns="http://www.w3.org/2000/svg" width="1780" height="257" viewBox="0 0 1780 257" fill="white">
	<path
		d="M236.649 0.363831C229.278 1.26381 216.721 4.64941 216.721 5.72081C216.721 6.06364 217.793 11.8063 219.078 18.5775C220.407 25.3487 221.393 30.92 221.35 31.0057C221.264 31.0485 218.778 31.52 215.864 32.0342C201.465 34.477 182.608 40.2625 172.494 45.3624C170.694 46.2623 170.009 46.4337 169.709 46.048C169.452 45.7481 166.409 40.0911 162.937 33.4056C158.695 25.3487 156.338 21.3203 155.909 21.3203C154.495 21.3203 147.338 23.4631 143.824 24.963C131.181 30.2771 118.325 41.2911 108.554 55.0906L106.025 58.6905L107.054 59.6762C107.996 60.5333 125.396 76.5185 125.824 76.9042C125.953 76.9899 124.41 78.747 122.396 80.804C120.425 82.8611 118.325 85.0468 117.768 85.6896L116.782 86.8467L119.996 85.561C126.467 83.0754 135.124 82.904 141.467 85.1325C143.567 85.861 144.167 85.9467 144.767 85.4753C145.195 85.2182 147.295 83.504 149.524 81.704C170.352 64.7332 195.894 53.9764 225.293 49.7336C233.007 48.6622 257.092 48.6194 264.506 49.7336C284.905 52.7336 302.476 58.4334 318.418 67.2188C366.159 93.5322 394.273 141.316 392.73 193.386C392.387 204.014 391.144 213.228 388.787 222.442L388.487 223.599L398.258 223.514L408.072 223.385L409.015 218.671C411.072 208.386 411.501 203.586 411.501 189.529C411.501 179.029 411.329 175.044 410.729 170.544C410.258 167.373 410.001 164.758 410.086 164.673C410.129 164.587 415.058 163.816 420.929 163.001C426.843 162.144 432.157 161.33 432.843 161.201C434 160.944 434 160.901 434 157.687C434 142.731 430.186 126.445 423.929 114.103C422 110.332 416.086 101.032 415.615 101.032C415.486 101.032 410.086 103.818 403.615 107.246C397.144 110.674 391.83 113.417 391.787 113.374C391.744 113.289 390.973 112.003 390.073 110.46C384.459 100.946 376.488 90.4466 369.116 82.7326L364.659 78.0613L374.473 67.8188C379.873 62.1618 384.287 57.362 384.287 57.1477C384.287 56.9334 383.387 55.6906 382.273 54.3621C371.559 41.591 361.231 33.1056 349.36 27.3201C344.603 24.963 337.446 22.2631 334.318 21.5774L332.989 21.2774L327.289 34.0484C324.118 41.0768 321.504 46.9052 321.461 46.9909C321.375 47.0766 318.118 45.7481 314.218 44.0767C302.561 39.0626 288.548 34.6484 278.562 32.8913C276.848 32.5914 275.434 32.1199 275.434 31.8628C275.434 31.6057 276.291 25.563 277.405 18.4061C278.477 11.2492 279.291 5.29225 279.162 5.16368C278.648 4.64941 269.177 2.33521 263.434 1.34952C256.406 0.106705 242.821 -0.407562 236.649 0.363831Z"
		fill="white" />
	<path
		d="M256.749 89.7181C256.02 90.0609 254.906 90.8752 254.306 91.518C253.192 92.7608 231.292 123.574 231.292 123.96C231.292 124.088 234.078 124.174 237.421 124.174H243.592L251.606 112.817C256.02 106.56 259.791 101.461 259.92 101.461C260.091 101.503 262.277 104.589 264.848 108.317L269.434 115.174H261.977C256.406 115.174 254.477 115.303 254.306 115.689C254.177 115.989 252.806 117.96 251.263 120.017C249.72 122.074 248.435 123.874 248.435 124.003C248.435 124.088 257.392 124.174 268.363 124.174C279.334 124.174 288.29 124.088 288.29 124.003C288.29 123.617 266.734 92.5894 265.663 91.4323C263.477 89.0752 259.534 88.3467 256.749 89.7181Z"
		fill="white" />
	<path
		d="M185.737 92.3321C184.494 93.9606 182.908 95.9749 182.223 96.832L181.065 98.4605H196.622C212.907 98.4605 214.921 98.6319 216.079 100.303C217.021 101.675 216.893 103.732 215.736 104.803C214.107 106.303 210.936 106.603 195.551 106.603H180.937L181.023 115.26L181.108 123.96L186.251 124.088L191.394 124.217L191.522 119.588L191.651 114.96L199.793 114.874L207.936 114.789L211.922 119.46L215.864 124.174H222.721C226.493 124.174 229.578 124.045 229.578 123.831C229.578 123.66 227.221 121.088 224.307 118.131L219.036 112.731L221.05 112.046C225.293 110.503 228.292 105.275 227.692 100.475C226.921 94.732 222.593 91.1322 214.921 89.8894C213.422 89.6751 206.779 89.4608 200.136 89.4608H188.051L185.737 92.3321Z"
		fill="white" />
	<path
		d="M293.09 93.8322L289.662 98.2464L302.304 98.3749L314.947 98.4606L310.147 102.146C298.447 111.146 292.705 115.774 291.848 117.017C289.919 119.674 291.076 122.846 294.205 123.746C295.147 124.003 302.261 124.174 312.075 124.174H328.403L331.361 120.017C333.032 117.746 334.446 115.731 334.489 115.517C334.575 115.346 328.875 115.174 321.847 115.174L309.076 115.132L310.361 114.189C311.047 113.674 316.232 109.603 321.889 105.146C333.203 96.1893 333.846 95.4179 332.775 92.5037C331.661 89.5038 331.361 89.4609 312.847 89.4609H296.476L293.09 93.8322Z"
		fill="white" />
	<path
		d="M124.367 90.9609C117.896 92.3751 112.411 95.5893 107.525 100.818C105.768 102.703 99.9824 110.632 93.5541 119.974C87.5543 128.76 64.0265 163.044 41.3129 196.172L0 256.384L21.8993 256.513C33.9417 256.555 44.0128 256.513 44.27 256.427C44.5271 256.341 63.8979 228.271 87.2971 194.072C110.696 159.873 129.939 131.888 130.11 131.888C130.239 131.931 138.553 144.445 148.581 159.744L166.795 187.601H189.851H212.907L202.879 172.687C197.351 164.501 184.708 145.559 174.723 130.602C157.881 105.318 156.295 103.089 152.481 99.2749C149.009 95.8465 147.681 94.8179 144.638 93.3608C138.724 90.4895 130.753 89.5467 124.367 90.9609Z"
		fill="white" />
	<path
		d="M180.123 129.402C181.023 130.859 257.606 241.042 258.077 241.513C258.506 241.984 258.634 241.513 258.849 239.156C259.449 231.956 263.006 227.071 269.305 224.799C272.22 223.771 281.348 223.256 284.305 223.942C286.105 224.371 286.148 224.371 286.491 222.999C286.705 222.271 290.305 208.343 294.547 192.1L302.219 162.53L302.433 192.957L302.647 223.385L318.847 223.514L335.003 223.599V176.244V128.888L308.561 128.974L282.076 129.102L273.505 165.315C268.748 185.243 264.806 201.786 264.677 202.086C264.591 202.386 253.235 186.058 239.435 165.787L214.364 128.888H197.094C183.38 128.888 179.866 129.017 180.123 129.402Z"
		fill="white" />
	<path
		d="M170.866 193.429C170.866 193.558 171.466 194.5 172.151 195.572L173.48 197.457H196.451H219.379L218.693 196.386C218.307 195.786 217.707 194.843 217.321 194.243L216.636 193.172H193.751C181.151 193.172 170.866 193.3 170.866 193.429Z"
		fill="white" />
	<path
		d="M177.294 203.029C177.294 203.286 177.808 204.229 178.408 205.171L179.565 206.886H202.665H225.807L224.35 204.829L222.893 202.814L200.093 202.686C184.665 202.643 177.294 202.729 177.294 203.029Z"
		fill="white" />
	<path
		d="M183.98 212.971C184.151 213.271 184.794 214.171 185.351 214.9L186.38 216.314H209.05C221.521 216.314 231.721 216.228 231.721 216.1C231.721 215.971 231.207 215.114 230.607 214.171L229.45 212.457H206.565C188.351 212.457 183.723 212.586 183.98 212.971Z"
		fill="white" />
	<path
		d="M191.008 222.142C191.008 222.271 191.694 223.214 192.508 224.199C193.322 225.228 194.008 226.214 194.008 226.385C194.008 226.556 185.265 226.642 174.637 226.599C163.966 226.514 142.11 226.471 126.082 226.514L96.9396 226.599L86.6542 241.213C80.9973 249.27 76.326 255.998 76.2403 256.213C76.1546 256.427 114.51 256.598 167.437 256.598C218.007 256.598 258.72 256.427 258.634 256.213C258.591 256.041 253.406 248.241 247.149 238.899L235.792 221.928L213.421 221.885C201.079 221.885 191.008 222.014 191.008 222.142Z"
		fill="white" />
	<path
		d="M273.805 229.171C271.363 229.685 267.848 231.656 266.906 232.985C264.506 236.37 263.606 240.742 264.334 245.627C265.106 251.327 267.891 254.627 273.077 255.955C278.262 257.284 285.076 256.47 288.505 254.113C292.019 251.713 293.819 245.799 292.962 239.713C291.976 232.513 287.948 229.213 279.762 228.913C277.491 228.828 274.834 228.956 273.805 229.171ZM284.476 236.713C286.233 237.613 287.005 239.413 287.005 242.67C287.005 248.113 285.334 249.484 278.648 249.484C271.963 249.484 270.291 248.113 270.291 242.67C270.291 238.256 271.448 236.67 275.22 235.985C277.619 235.513 283.062 235.942 284.476 236.713Z"
		fill="white" />
	<path
		d="M328.618 229.428C324.546 230.499 322.404 232.256 320.775 235.813C319.961 237.613 319.789 238.685 319.789 242.67C319.789 246.656 319.961 247.727 320.775 249.527C322.061 252.313 323.904 254.156 326.603 255.355C328.489 256.213 329.518 256.341 334.146 256.384C338.86 256.384 339.76 256.255 341.732 255.355C344.389 254.198 347.089 251.413 347.903 249.056C348.803 246.57 348.674 237.999 347.731 235.942C346.746 233.756 344.603 231.399 342.76 230.499C339.289 228.742 332.946 228.271 328.618 229.428ZM339.974 236.67C343.489 238.127 343.617 246.87 340.146 248.67C337.017 250.299 329.303 249.784 327.332 247.856C325.275 245.799 325.232 239.927 327.246 237.656C328.061 236.756 328.961 236.285 330.503 236.028C333.118 235.556 338.175 235.899 339.974 236.67Z"
		fill="white" />
	<path
		d="M296.947 232.342C295.962 234.056 295.147 235.599 295.147 235.727C295.147 235.899 297.119 236.07 299.562 236.113L303.933 236.242L304.061 246.184L304.147 256.17H307.147H310.147L310.233 246.184L310.361 236.242L314.004 236.113L317.647 235.985L319.361 232.899C320.304 231.228 321.161 229.685 321.204 229.513C321.289 229.299 316.275 229.171 310.061 229.171H298.747L296.947 232.342Z"
		fill="white" />
	<path
		d="M355.703 229.685C355.017 230.585 352.146 235.599 352.146 235.942C352.146 236.113 356.388 236.242 361.617 236.242C371.045 236.242 371.088 236.242 371.902 237.27C372.931 238.556 372.931 239.927 371.902 241.213C371.088 242.242 371.002 242.242 361.402 242.37L351.717 242.499V249.356V256.17H354.931H358.145V252.527V248.884H362.817H367.445L369.674 252.527L371.945 256.17H375.973C378.202 256.17 380.002 256.084 380.002 255.955C380.002 255.655 375.802 249.698 374.688 248.499C374.088 247.813 373.959 247.427 374.302 247.299C377.002 246.313 378.845 242.884 378.845 238.813C378.888 233.885 376.916 231.099 372.416 229.771C369.759 228.956 356.303 228.913 355.703 229.685Z"
		fill="white" />
	<path
		d="M387.073 229.728C383.516 231.142 382.187 233.242 382.145 237.399C382.145 241.127 383.43 243.613 386.002 244.727C386.602 244.984 390.459 245.284 394.573 245.413L402.072 245.67L402.201 246.87C402.458 249.184 402.072 249.313 393.287 249.313H385.23L384.073 251.327C383.43 252.484 382.487 254.027 382.016 254.798L381.202 256.213L392.259 256.084C403.101 255.955 403.401 255.913 405.03 254.927C407.215 253.555 408.287 251.198 408.287 247.599C408.287 244.213 407.387 242.199 405.287 240.956C403.958 240.227 402.801 240.056 396.073 239.884L388.359 239.67L388.23 238.256C388.016 236.285 389.087 236.027 397.101 236.027C402.03 236.027 404.001 235.899 404.301 235.47C404.515 235.213 405.415 233.67 406.315 232.042L407.901 229.171L398.13 229.213C391.744 229.213 387.93 229.428 387.073 229.728Z"
		fill="white" />
	<path
		d="M564.196 88.6696C562.496 89.5197 560.023 91.3744 558.709 92.7654C556.855 94.7747 511.105 158.84 506.391 166.104L505 168.268H519.683H534.366L551.986 143.306C561.646 129.628 570.07 117.804 570.765 117.109C571.924 115.872 572.774 116.877 582.666 131.405L593.253 147.016L576.484 147.402L559.714 147.789L552.604 157.449C548.663 162.781 545.417 167.34 545.417 167.65C545.34 168.036 566.206 168.268 591.785 168.268H638.23L633.284 161.158C585.371 91.6835 585.448 91.7608 581.352 89.3651C576.329 86.5058 569.142 86.1967 564.196 88.6696Z"
		fill="white" />
	<path
		d="M822.311 88.6696C820.61 89.5197 818.138 91.3744 816.824 92.7654C814.969 94.7747 769.219 158.84 764.505 166.104L763.114 168.268H777.798H792.481L810.1 143.306C819.76 129.628 828.184 117.804 828.879 117.109C830.039 115.872 830.889 116.877 840.78 131.405L851.368 147.016L834.598 147.402L817.828 147.789L810.719 157.449C806.777 162.781 803.532 167.34 803.532 167.65C803.454 168.036 824.32 168.268 849.9 168.268H896.345L891.399 161.158C843.485 91.6835 843.563 91.7608 839.467 89.3651C834.444 86.5058 827.257 86.1967 822.311 88.6696Z"
		fill="white" />
	<path
		d="M1079.73 88.9787C1078.03 89.9833 1075.94 91.9926 1075.17 93.3837C1074.4 94.7747 1068.91 112.085 1063.11 131.869L1052.53 167.881L1064.51 168.113C1071.07 168.19 1076.64 168.19 1076.79 168.036C1077.1 167.649 1084.6 140.37 1087.69 128.082L1089.93 119.195L1094.18 127.696C1103.38 145.779 1113.42 164.017 1115.43 166.104C1120.69 171.591 1133.59 170.741 1137.84 164.713C1140.16 161.235 1144.57 153.121 1153.61 135.424C1158.17 126.537 1162.11 119.736 1162.26 120.354C1162.5 120.973 1164.97 130.555 1167.91 141.606C1170.77 152.657 1173.55 163.09 1174.09 164.79L1174.94 167.881L1187.53 168.113C1197.43 168.268 1199.98 168.113 1199.74 167.34C1199.51 166.799 1194.72 150.184 1189 130.401C1180.19 99.8752 1178.34 94.1564 1176.41 91.9153C1173.24 88.3605 1170.53 87.124 1165.51 87.124C1160.72 87.124 1158.01 88.2059 1154.92 91.5289C1153.15 93.3837 1133.59 127.155 1128.26 137.665L1126.33 141.452L1121.85 132.951C1113.81 117.649 1100.05 93.7701 1097.97 91.4517C1093.72 86.7376 1085.37 85.6557 1079.73 88.9787Z"
		fill="white" />
	<path
		d="M1241.48 87.8968C1234.06 89.056 1227.57 90.988 1221.92 93.6928C1208.17 100.262 1202.06 110.694 1201.91 127.696C1201.75 152.812 1215.36 165.563 1245.8 168.963C1264.97 171.127 1284.83 169.041 1297.12 163.554C1311.26 157.217 1317.83 147.248 1318.68 130.787C1319.37 117.727 1316.28 108.453 1308.86 100.957C1303.61 95.6248 1297.12 92.2244 1287.3 89.6742C1280.58 87.8968 1278.26 87.6649 1262.88 87.4331C1253.53 87.3558 1243.87 87.5104 1241.48 87.8968ZM1276.41 108.762C1285.14 110.153 1289.47 112.472 1291.86 117.186C1295.11 123.6 1294.49 135.888 1290.63 140.988C1286.38 146.552 1279.19 148.33 1260.64 148.33C1240.63 148.33 1233.59 146.552 1229.5 140.292C1227.64 137.51 1227.33 136.197 1227.02 130.169C1226.72 122.209 1227.8 117.649 1230.58 114.558C1233.21 111.776 1238.08 109.69 1243.72 108.84C1250.13 107.912 1270.53 107.835 1276.41 108.762Z"
		fill="white" />
	<path
		d="M1464.04 87.8968C1456.62 89.056 1450.13 90.988 1444.49 93.6928C1430.73 100.262 1424.63 110.694 1424.47 127.696C1424.32 152.812 1437.92 165.563 1468.37 168.963C1487.53 171.127 1507.4 169.041 1519.68 163.554C1533.83 157.217 1540.39 147.248 1541.24 130.787C1541.94 117.727 1538.85 108.453 1531.43 100.957C1526.17 95.6248 1519.68 92.2244 1509.87 89.6742C1503.15 87.8968 1500.83 87.6649 1485.45 87.4331C1476.1 87.3558 1466.44 87.5104 1464.04 87.8968ZM1498.97 108.762C1507.7 110.153 1512.03 112.472 1514.43 117.186C1517.67 123.6 1517.06 135.888 1513.19 140.988C1508.94 146.552 1501.75 148.33 1483.21 148.33C1463.19 148.33 1456.16 146.552 1452.06 140.292C1450.21 137.51 1449.9 136.197 1449.59 130.169C1449.28 122.209 1450.36 117.649 1453.15 114.558C1455.77 111.776 1460.64 109.69 1466.28 108.84C1472.7 107.912 1493.1 107.835 1498.97 108.762Z"
		fill="white" />
	<path
		d="M655.618 97.5568C651.445 102.966 647.813 107.835 647.581 108.453C647.272 109.381 652.913 109.535 684.753 109.535C720.301 109.535 722.542 109.612 725.247 111.003C731.739 114.326 731.507 122.209 724.861 125.455C722.156 126.846 719.374 126.923 684.289 127.155L646.576 127.387V147.789V168.268H659.328H672.079V157.835V147.402H690.935H709.791L718.524 157.835L727.334 168.268H743.717C752.759 168.268 760.178 168.036 760.178 167.804C760.178 167.495 754.614 161.699 747.813 154.744L735.448 142.224L738.385 141.374C748.74 138.283 755.541 128.391 755.541 116.49C755.541 103.198 747.736 94.3883 731.816 90.0607C726.252 88.5151 723.624 88.3605 694.49 88.1287L663.192 87.8195L655.618 97.5568Z"
		fill="white" />
	<path
		d="M907.087 98.175C902.836 103.816 899.281 108.762 899.281 109.071C899.281 109.458 912.419 109.612 928.493 109.381L957.627 109.071L947.967 116.413C935.294 126.073 909.559 146.32 906.7 148.871C900.209 154.821 900.518 163.786 907.396 167.031C909.637 168.113 915.046 168.268 949.745 168.268H989.544L996.422 158.84C1000.21 153.585 1003.61 148.871 1003.92 148.33C1004.38 147.557 998.972 147.402 974.706 147.557C958.323 147.711 944.876 147.711 944.876 147.634C944.876 147.557 947.04 145.857 949.745 143.847C952.372 141.761 964.196 132.487 975.943 123.136C993.794 109.071 997.736 105.594 999.049 102.812C1001.91 96.9385 999.204 90.6789 992.944 88.8242C990.78 88.1287 978.957 87.8968 952.45 87.8968H914.969L907.087 98.175Z"
		fill="white" />
	<path
		d="M1338.46 89.597C1336.14 92.3018 1323.55 108.685 1323.55 109.149C1323.55 109.381 1331.89 109.535 1342.09 109.535H1360.64V138.901V168.268H1373.39H1386.14V138.901V109.535H1399.9C1407.4 109.535 1413.96 109.226 1414.43 108.917C1415.43 108.221 1430.19 88.9787 1430.19 88.3605C1430.19 88.1287 1409.95 87.8968 1385.14 87.8968H1340.01L1338.46 89.597Z"
		fill="white" />
	<path
		d="M1562.11 97.5568C1557.94 102.966 1554.3 107.835 1554.07 108.453C1553.76 109.381 1559.4 109.535 1591.24 109.535C1626.79 109.535 1629.03 109.612 1631.74 111.003C1638.23 114.326 1638 122.209 1631.35 125.455C1628.65 126.846 1625.87 126.923 1590.78 127.155L1553.07 127.387V147.789V168.268H1565.82H1578.57V157.835V147.402H1597.43H1616.28L1625.02 157.835L1633.83 168.268H1650.21C1659.25 168.268 1666.67 168.036 1666.67 167.804C1666.67 167.495 1661.1 161.699 1654.3 154.744L1641.94 142.224L1644.88 141.374C1655.23 138.283 1662.03 128.391 1662.03 116.49C1662.03 103.198 1654.23 94.3883 1638.31 90.0607C1632.74 88.5151 1630.12 88.3605 1600.98 88.1287L1569.68 87.8195L1562.11 97.5568Z"
		fill="white" />
	<path
		d="M1698.35 88.7468C1687.69 90.2924 1680.04 95.0065 1676.33 102.116C1674.4 105.98 1674.01 107.526 1674.01 112.549C1674.01 120.354 1675.71 124.759 1680.5 129.01C1687.77 135.501 1694.03 136.583 1727.33 136.583C1755.46 136.583 1755.54 136.583 1755.54 141.993C1755.54 147.557 1756.31 147.402 1719.53 147.402H1686.99L1679.11 157.603L1671.15 167.881L1711.65 168.113C1754.77 168.345 1758.94 168.036 1766.36 164.713C1774.24 161.158 1778.03 155.98 1779.57 146.861C1781.28 137.047 1777.8 128.469 1770.53 124.45C1763.89 120.741 1760.18 120.354 1731.97 120.354C1706 120.354 1700.29 119.891 1699.05 117.881C1697.89 116.104 1698.28 112.163 1699.74 110.849C1701.06 109.69 1704.38 109.535 1731.43 109.535H1761.65L1769.14 99.6432C1773.32 94.2337 1777.02 89.365 1777.41 88.8241C1778.03 88.1286 1770.46 87.8967 1740.39 87.974C1719.61 88.0513 1700.67 88.3604 1698.35 88.7468Z"
		fill="white" />
</svg>
