<svg version="1.1"  x="0px" y="0px"
	 viewBox="0 0 1920 1080" style="enable-background:new 0 0 1920 1080;" xml:space="preserve">
<g>
	<circle fill="#0ED08A" cx="1010.39" cy="545.5" r="510.5"/>
	<g>
		<path fill="#F6F6F6" d="M1224.38,660.48c-114.45,0-228.55,0-343.04,0c4.03-28.15-3.53-52.22-24.92-71.13
			c-15.11-13.36-33.11-19.12-53.2-18.25c-39.92,1.72-76.14,37.55-70.67,84.92c-1.3-0.22-2.54-0.34-3.72-0.64
			c-17.38-4.39-34.75-8.82-52.14-13.18c-3.4-0.85-6.84-1.56-10.3-2.1c-8.44-1.31-14.27-5.9-17.59-13.7
			c-3.55-8.35-3.98-17.14-3.52-26.04c0.21-4.15,0.56-8.31,0.52-12.46c-0.06-6.17,2.12-11.2,7.04-14.89
			c4.64-3.48,6.78-8.05,6.78-13.76c0-4.29,0.05-8.58,0.07-12.87c0.05-8.25,1.41-16.31,3.86-24.17c2.21-7.12,3.5-14.38,4.09-21.79
			c0.36-4.51,0.58-4.98,5.13-5.95c7.24-1.55,14.52-2.89,21.81-4.19c11.17-1.99,21.95-5.28,32.55-9.3
			c36.45-13.82,73.02-27.33,109.37-41.4c15.37-5.95,31-10.48,47.29-12.73c7.46-1.03,14.96-1.98,22.47-2.47
			c16.47-1.07,32.96-2.25,49.45-2.65c78.8-1.94,153.48,15.35,224.58,48.87c24.74,11.66,48.45,25.13,70.64,41.21
			c1.27,0.92,3.06,1.37,4.66,1.54c9.56,1.01,19.18,1.59,28.71,2.83c29.6,3.87,58.5,10.78,86.55,21.06
			c4.74,1.74,9.38,3.93,13.73,6.47c14.23,8.32,26.89,18.64,38.23,30.62c8.87,9.37,12.9,20.37,12.78,33.28
			c-0.12,12.97-2.14,25.6-4.98,38.18c-0.67,2.96-2.23,5.05-4.97,6c-4.4,1.53-8.83,3.09-13.37,4.1c-12.08,2.67-24.38,3.81-36.72,4.58
			c-1,0.06-2.01-0.08-3.22-0.14c3.81-25.72-2.36-48.24-20.52-66.88c-14.61-14.99-32.72-22.56-53.54-22.46
			c-23.4,0.11-43,9.35-57.92,27.49C1225.53,616.47,1220.64,637.31,1224.38,660.48z M896.15,509.1c31.4,0.28,52.98,0.47,74.56,0.66
			c1.17,0.01,2.35,0.06,3.51-0.07c4.63-0.53,7.88-3.6,8.61-8.23c0.4-2.56,0.65-5.16,0.85-7.75c1.11-14.33,0.02-28.58-1.61-42.8
			c-0.64-5.59-4.17-8.81-9.92-8.99c-24.91-0.77-49.64,0.8-74.02,6.29c-16.83,3.79-32.99,9.37-47.81,18.4
			c-11.36,6.92-21.13,15.55-28.6,26.64c-0.8,1.18-1.62,2.38-2.21,3.67c-2.23,4.89-0.26,8.5,5.03,9.03
			c6.08,0.61,12.17,1.26,18.26,1.48C863.85,508.18,884.9,508.76,896.15,509.1z M1106.85,516.27c24.67,1.16,49.35,2.33,74.02,3.49
			c1.04,0.05,2.11,0.17,3.11-0.03c2.53-0.52,3.5-2.86,2.13-5.07c-0.54-0.87-1.3-1.62-1.99-2.4c-14.16-15.97-31.2-28.19-49.97-38.11
			c-21.66-11.44-44.71-18.9-68.7-23.55c-16.62-3.22-33.4-5.07-50.32-5.56c-5.09-0.15-7.15,2.48-6,7.38
			c4.09,17.45,8.19,34.9,12.34,52.34c1.36,5.72,3.96,7.84,9.8,8.1C1056.46,514.02,1081.66,515.14,1106.85,516.27z"/>
		<path fill="#F6F6F6" d="M807.21,584.35c33.98-0.07,61.4,27.4,61.82,61.27c0.39,31.86-25.03,62.01-61.63,62.25
			c-34.09,0.22-61.75-27.53-61.81-61.66C745.52,612.08,773.07,584.42,807.21,584.35z"/>
		<path fill="#F6F6F6" d="M1360.01,645.86c0.12,34.12-27.45,61.95-61.47,62.05c-34.07,0.09-61.93-27.56-62-61.56
			c-0.07-34.15,27.21-61.9,61.51-61.98C1333.78,584.29,1360.04,613.14,1360.01,645.86z"/>
	</g>
</g>
</svg>
