<?xml version="1.0" encoding="utf-8"?>
<svg version="1.1" x="0px" y="0px"
	 viewBox="0 0 1920 1080" style="enable-background:new 0 0 1920 1080;" xml:space="preserve">
<style type="text/css">
	.st0{fill:#F13883;}
	.st1{fill:#F6F6F6;}
</style>
<g>
	<circle class="st0" cx="1012" cy="540" r="513"/>
	<path class="st1" d="M1044.44,680.01c-4.39,1.82-8.77,3.64-11.2,4.66c-3,4.52-5.79,7.4-7.01,10.84c-2.67,7.53-4.8,15.27-6.6,23.05
		c-0.78,3.39-0.17,7.1-0.27,10.66c-0.13,4.63,0.42,8.58,6.29,9.34c1.43,0.19,3.67,1.79,3.82,2.95c0.71,5.61,5.27,5.58,8.99,6.62
		c16.99,4.74,33.83,10.03,48.89,19.41c5.25,3.27,9.8,8.02,13.87,12.77c4.07,4.76,3.14,9.91-2.56,12.61
		c-6.35,3.01-13.22,5.36-20.11,6.67c-36.55,6.97-73.37,8.25-110.31,3.62c-10.94-1.37-21.82-3.27-32.64-5.36
		c-5.93-1.15-12.35-3.07-13.66-9.97c-1.26-6.63,3.38-11.32,8.2-15.03c17.07-13.14,36.63-20.95,57.46-25.74
		c3.15-0.72,5.41-1.24,6.35-5.03c0.43-1.72,3.4-3.51,5.49-3.94c3.53-0.72,4.75-2.8,4.98-5.79c0.91-12.14-0.66-23.93-5.53-35.16
		c-0.64-1.48-2.18-2.55-3.05-3.97c-1.35-2.2-2.49-4.53-3.72-6.8c0.44-0.32,0.88-0.65,1.32-0.97c-2.5-0.66-5.26-0.87-7.44-2.1
		c-2.25-1.27-5.04-3.29-5.52-5.45c-0.37-1.65,2.05-4.81,4-5.91c4.35-2.46,9.3-3.82,13.77-6.08c2.42-1.22,6.36-3.72,6.14-5.05
		c-0.48-2.86-2.63-6.57-5.14-7.77c-11.54-5.57-22.64-11.59-32.08-20.46c-8.82-8.29-16.61-17.31-21.52-28.47
		c-4.96-11.28-9.58-22.71-14.68-33.92c-0.85-1.87-3.22-4.06-5.1-4.28c-24.41-2.86-42.26-16.45-56.93-34.87
		c-18.01-22.6-28.24-48.88-33.71-76.95c-7.22-37-13.44-74.19-11.64-112.12c0.39-8.15,2.4-16.24,4.03-24.29
		c0.35-1.73,2.28-3.14,3.47-4.69c1.39,1.11,3.03,2.01,4.13,3.35c11.16,13.62,23.38,25.9,40.24,32.46
		c8.78,3.42,17.79,4.15,27.07,2.92c3.08-0.41,4.58-1.44,4.44-4.95c-0.28-7.31-0.08-14.63-0.09-21.95c0-0.94,0.33-2.21-0.15-2.76
		c-5.59-6.5-2.17-14.31-3.31-21.44c-1.09-6.85,2.36-11,8.2-12.9c9.22-3.01,18.54-6.18,28.07-7.72c50.38-8.13,100.82-8.21,151.1,0.95
		c7.85,1.43,15.44,4.44,23.01,7.12c4.66,1.65,7.14,4.97,6.29,10.48c-0.62,4.05,0.03,8.28-0.5,12.35c-0.45,3.49-1.79,6.86-2.65,10.31
		c-0.31,1.24-0.55,2.54-0.55,3.81c0.02,7.13,0.33,14.27,0.1,21.39c-0.13,4.03,1.55,5.01,5.21,5.39
		c19.94,2.11,36.41-5.22,50.53-18.57c5.43-5.13,10.19-10.99,15.05-16.7c4-4.69,6.13-4.78,7.9,1.23c2.52,8.54,5.56,17.42,5.52,26.14
		c-0.23,50.67-6.35,100.58-23.82,148.46c-7.67,21.02-20.08,39.35-37.2,54.14c-12.19,10.53-25.97,17.57-42.2,19.48
		c-1.72,0.2-3.92,2.12-4.69,3.79c-5.72,12.56-10.45,25.63-16.82,37.84c-8.94,17.15-22.15,30.5-39.77,39.14
		c-4.69,2.3-9.45,4.63-13.67,7.67c-1.98,1.42-3.88,4.68-3.65,6.88c0.18,1.69,3.58,3.37,5.84,4.43c3.02,1.43,6.6,1.78,9.43,3.46
		c3.84,2.28,7.2,5.39,10.76,8.14C1044.78,678.27,1044.61,679.14,1044.44,680.01z M853.67,367.07c-0.23,3.53-0.57,5.92-0.5,8.31
		c0.56,20.24,0.58,40.51,1.94,60.69c2.37,35.19,15.79,66.38,36.69,94.47c6.87,9.23,14.78,17.53,25.73,22.1
		c2.42,1.01,5.06,1.48,8.18,2.36c-13.88-60.66-16.84-121.26-19.24-182.33C888.54,376.52,870.82,377.51,853.67,367.07z
		 M1097.44,554.11c0.5,0.42,1,0.84,1.5,1.25c5.53-3.19,11.55-5.77,16.52-9.68c21.73-17.09,36.32-39.34,43.56-65.83
		c8.13-29.72,11.97-60.19,12.16-91.05c0.04-6.85-0.68-13.7-1.09-21.47c-17.24,9.83-34.65,9.72-52.94,5.33
		C1113.19,433.82,1112.97,494.78,1097.44,554.11z"/>
</g>
</svg>
