<svg version="1.1" x="0px" y="0px"
	 viewBox="0 0 1920 1080" style="enable-background:new 0 0 1920 1080;" xml:space="preserve">
<style type="text/css">
	.st0{fill:#9652F9;}
	.st1{fill:#F6F6F6;}
</style>
<g>
	<circle fill="#9652F9" cx="968.65" cy="548.5" r="494.5"/>
	<path fill="#F6F6F6" d="M1199.36,424.56c-4.46,9.88-8.94,19.76-13.39,29.65c-1.73,3.85-3.41,7.72-5.28,11.97
		c-8.54-3.66-16.69-7.06-24.75-10.67c-2.58-1.16-4.51-1.27-6.94,0.62c-8.76,6.8-17.83,13.21-26.53,20.08
		c-1.45,1.14-2.48,3.9-2.33,5.8c0.7,8.96,1.88,17.88,2.94,27.19c-15.76,1.84-30.92,3.62-46.55,5.45c-1.1-9.3-1.99-18.27-3.37-27.16
		c-0.29-1.9-1.98-4.36-3.68-5.14c-10.05-4.65-20.36-8.75-30.44-13.32c-2.81-1.27-4.61-0.7-6.84,1.02
		c-7.02,5.4-14.18,10.6-21.68,16.16c-9.33-12.49-18.47-24.75-28.04-37.57c7.07-5.32,13.84-10.65,20.9-15.59
		c3.02-2.11,4.14-4.14,3.58-7.97c-1.49-10.12-2.51-20.32-3.5-30.51c-0.35-3.6-1.66-5.69-5.25-7.08c-8.08-3.11-15.94-6.8-24.15-10.36
		c6.23-14.45,12.29-28.5,18.56-43.06c8.36,3.58,16.5,6.91,24.49,10.57c3.01,1.38,5.16,1.2,7.84-0.89
		c8.34-6.51,16.86-12.8,25.47-18.94c2.73-1.95,3.54-3.9,3.04-7.25c-1.29-8.56-2.1-17.19-3.17-26.43
		c15.68-1.84,30.84-3.62,46.57-5.47c1.07,9.02,2.3,17.59,3.01,26.2c0.29,3.58,1.69,5.37,4.94,6.7c9.94,4.06,19.7,8.57,29.67,12.54
		c1.76,0.7,4.71,0.36,6.27-0.72c7.43-5.11,14.56-10.65,22.15-16.29c9.39,12.58,18.55,24.84,28.08,37.6
		c-6.84,5.11-13.32,10.34-20.23,14.94c-3.82,2.55-4.89,5.3-4.23,9.72c1.51,10.12,2.65,20.3,3.7,30.48c0.3,2.9,1.36,4.48,4.13,5.55
		c8.4,3.22,16.68,6.73,25.01,10.12C1199.36,423.19,1199.36,423.87,1199.36,424.56z M1086.55,445.07
		c24.56,0.12,44.91-19.85,45.1-44.26c0.2-25.07-19.82-45.46-44.84-45.66c-24.3-0.2-44.9,20.05-45.14,44.36
		C1041.43,424.55,1061.52,444.95,1086.55,445.07z"/>
	<path fill="#F6F6F6" d="M807.68,350.2c18.57,0,36.48,0,54.38,0.01c1.34,0,2.69,0.13,4.6,0.22c0.81,8.35,2.22,16.6,2.26,24.86
		c0.04,8.48,2.69,13.58,11.4,16.15c8.78,2.59,17.11,6.75,25.53,10.46c2.71,1.2,4.54,0.89,6.78-1.03
		c8.28-7.08,16.74-13.95,24.79-20.62c14.1,14.05,27.85,27.75,41.93,41.77c-6.47,7.81-12.97,15.92-19.79,23.76
		c-2.53,2.91-3.18,5.25-1.5,8.98c4.48,9.94,8.59,20.06,12.5,30.25c1.3,3.4,3.14,4.54,6.67,4.8c10.52,0.77,21,1.98,31.79,3.04
		c0,19.68,0,39.06,0,58.97c-10.88,1.06-21.69,2.26-32.52,3.08c-3.03,0.23-4.5,1.32-5.59,4.06c-4.29,10.77-8.68,21.5-13.29,32.13
		c-1.22,2.8-0.74,4.59,1.13,6.78c6.97,8.18,13.77,16.51,20.39,24.49c-14.06,13.95-27.92,27.69-42.08,41.73
		c-7.63-6.31-15.97-13.07-24.13-20.03c-2.36-2.01-4.24-2.5-7.25-1.18c-10.45,4.59-21.04,8.9-31.65,13.13
		c-2.65,1.06-3.98,2.31-4.22,5.42c-0.8,10.72-2,21.4-3.09,32.55c-19.52,0-39.03,0-59.07,0c-1.02-10.7-2.2-21.51-2.99-32.34
		c-0.22-3.03-1.31-4.44-4.05-5.53c-10.77-4.28-21.49-8.71-32.12-13.32c-2.77-1.2-4.59-0.78-6.81,1.11
		c-8.18,6.97-16.53,13.74-24.5,20.33c-13.95-14-27.74-27.85-41.82-41.98c5.8-6.99,11.92-14.77,18.5-22.14
		c3.33-3.73,4.25-6.77,1.9-11.63c-4.58-9.51-8.38-19.4-12.23-29.24c-1.15-2.94-2.59-4.13-5.83-4.36
		c-10.69-0.77-21.36-1.97-32.26-3.03c0-19.68,0-39.08,0-59c10.83-1.07,21.62-2.25,32.45-3.12c2.93-0.24,4.44-1.17,5.55-3.99
		c4.25-10.78,8.7-21.49,13.31-32.13c1.2-2.77,0.84-4.54-1.09-6.8c-7-8.15-13.76-16.5-20.4-24.54c14.07-13.9,27.99-27.64,42.17-41.65
		c7.48,6.19,15.88,12.9,23.98,19.96c2.61,2.27,4.64,2.36,7.67,1.04c10.31-4.49,20.73-8.77,31.2-12.87c3.19-1.25,4.21-3.02,4.44-6.39
		C805.42,371.82,806.61,361.31,807.68,350.2z M761.54,522c-0.2,41.61,33.61,75.78,75.18,76.01c41.8,0.23,76.12-33.84,76.17-75.61
		c0.04-41.34-33.72-75.43-75-75.74C795.98,446.34,761.74,480.13,761.54,522z"/>
	<path fill="#F6F6F6" d="M1064.17,796.95c-1.5-0.56-2.45-0.87-3.36-1.26c-13.16-5.61-26.31-11.23-39.87-17.01
		c3.57-8.4,6.85-16.59,10.54-24.6c1.41-3.07,1.1-5.14-0.96-7.77c-6.53-8.32-12.89-16.79-19.05-25.4c-2-2.79-4.11-3.45-7.33-3
		c-8.57,1.22-17.18,2.15-26.32,3.26c-1.91-15.63-3.75-30.65-5.68-46.49c8.34-1.06,16.52-2.36,24.75-3.04
		c4.39-0.36,6.99-1.69,8.66-6.11c3.61-9.56,7.77-18.92,11.99-28.24c1.31-2.89,1-4.86-0.93-7.31c-5.48-6.97-10.69-14.15-16.23-21.56
		c12.58-9.44,24.96-18.73,37.56-28.18c5.65,7.52,10.96,14.84,16.6,21.89c1.14,1.42,3.6,2.75,5.31,2.58
		c11.55-1.11,23.07-2.5,34.55-4.15c1.53-0.22,3.33-2.17,4.05-3.75c3.73-8.18,7.16-16.51,10.86-25.17
		c14.54,6.2,28.6,12.2,43.18,18.42c-3.57,8.36-6.9,16.51-10.55,24.51c-1.37,3.01-1.21,5.15,0.91,7.82
		c6.56,8.3,12.91,16.78,19.07,25.38c1.99,2.78,4.06,3.53,7.3,3.07c8.58-1.22,17.2-2.17,26.4-3.3c1.91,15.69,3.76,30.83,5.68,46.55
		c-8.78,1.07-17.19,2.23-25.64,3.06c-3.77,0.37-6,1.67-7.47,5.49c-3.73,9.7-7.9,19.24-12.2,28.71c-1.31,2.89-1.12,4.87,0.82,7.34
		c5.46,6.98,10.67,14.16,16.23,21.62c-12.59,9.43-24.97,18.72-37.55,28.14c-5.59-7.43-11.01-14.45-16.2-21.65
		c-1.68-2.33-3.38-3.35-6.34-2.95c-11.16,1.5-22.37,2.66-33.51,4.27c-1.57,0.23-3.52,1.94-4.22,3.46
		C1071.41,779.8,1067.96,788.14,1064.17,796.95z M1086.81,729.27c24.85-0.05,44.91-20.18,44.84-44.99
		c-0.07-24.83-20.17-44.76-45.09-44.71c-24.9,0.05-44.91,20.09-44.86,44.94C1041.75,709.25,1061.97,729.32,1086.81,729.27z"/>
</g>
</svg>
