<svg version="1.1" x="0px" y="0px"
	 viewBox="0 0 1920 1080" style="enable-background:new 0 0 1920 1080;" xml:space="preserve">
<g>
	<circle fill="#F6AC20" cx="960.22" cy="540" r="530"/>
	<path class="st1" fill="#F6F6F6" d="M608.84,503.74c41.36,0,82.72,0.11,124.07-0.1c8.12-0.04,16.3-0.92,24.34-2.13c6.16-0.93,9.06-6.33,8.42-13.68
		c-0.53-6.06-3.71-9.2-10.43-9.3c-33.55-0.49-67.11-0.92-100.66-1.19c-43.71-0.36-87.43-0.54-131.15-0.85
		c-2.89-0.02-5.81-0.29-8.65-0.8c-8.74-1.57-12.84-10-8.47-17.72c2.86-5.05,6.56-8.17,13.36-8.14
		c60.04,0.29,120.09,0.17,180.14,0.17c6.31,0,13.21-4.89,15.33-10.79c2.22-6.19-0.48-15.21-9.43-15.32
		c-15.05-0.18-30.09-0.82-45.13-0.92c-52.79-0.35-105.57-0.52-158.36-0.87c-5.42-0.04-10.89-0.51-16.25-1.3
		c-6.62-0.97-9.25-4.94-8.35-11.58c1.21-8.84,6.62-13.54,15.58-13.54c82,0,163.99,0,245.99,0c6.27,0,12.02-4.16,14.7-10.62
		c2.39-5.76,0.21-10.45-4.05-14.07c-1.81-1.54-4.78-2.39-7.23-2.4c-44.99-0.16-89.98-0.07-134.97-0.19
		c-20.5-0.06-40.99-0.35-61.48-0.76c-9.82-0.2-14.18-4.1-14.18-11.89c0-8.04,5.88-14.01,14.65-14.14c17.23-0.27,34.47-0.42,51.7-0.2
		c4.78,0.06,6.94-1.08,8.17-6.01c1.1-4.4,3.6-8.69,6.37-12.37c3.83-5.09,9.02-7.68,15.92-7.71c58.59-0.21,117.18-0.95,175.77-1.08
		c82.18-0.17,164.35-0.05,246.53,0.19c15.22,0.05,30.43,1.34,45.64,1.94c7.62,0.3,11.98,4.61,12.74,11.62
		c0.88,8.05,1.06,16.27,0.57,24.36c-0.93,15.57-2.4,31.11-3.94,46.63c-0.43,4.34,0.89,5.82,5.16,5.89
		c28.83,0.47,57.67,1.68,86.49,1.43c14-0.12,25.1,4.84,34.59,14.06c10.53,10.23,20.66,20.9,30.53,31.77
		c15.73,17.31,31.16,34.9,46.64,52.44c10.96,12.42,14.72,26.75,13.06,43.33c-3.29,32.84-5.64,65.77-8.41,98.66
		c-0.32,3.79-0.77,7.58-1.34,11.34c-2.23,14.62-16.38,25.1-31.08,23.32c-3.5-0.43-3.82-2.57-4.08-5.28
		c-0.66-7.03-0.67-14.23-2.32-21.03c-11.84-48.71-64.41-73.73-111.99-52.73c-30.58,13.5-50.22,36.81-57.12,70.05
		c-1.68,8.09-1.65,8.11-9.85,8.09c-83.81-0.16-167.62-0.3-251.43-0.53c-4.51-0.01-10.25,0.84-13.17-1.51
		c-2.57-2.07-2.17-8.02-2.8-12.3c-3.71-25.39-15.03-46.37-37.3-59.78c-27.44-16.52-55.84-15-83.55-0.53
		c-27.15,14.18-43.64,36.87-50.27,66.83c-2.34,10.6-0.16,8.87-10.92,8.77c-13.06-0.11-26.12-0.49-39.17-0.78
		c-2.36-0.05-4.71-0.17-7.07-0.34c-16.79-1.18-21.96-5.99-21.4-22.67c0.65-19.56,2.44-39.08,3.86-58.61
		c0.82-11.21,2.12-22.4,2.74-33.62c0.24-4.46,1.81-5.91,6.15-5.95c22.85-0.23,45.7-0.64,68.55-1.09c2.87-0.06,5.83-0.39,8.57-1.21
		c11.01-3.27,13.91-15.13,5.56-23.03c-1.32-1.24-3.91-1.57-5.91-1.59c-68.02-0.57-136.05-1.05-204.07-1.54
		c-6.77-0.05-12.1-4.78-12.6-11.21c-0.48-6.31,3.79-12.16,10.39-12.95c8.26-0.99,16.62-1.69,24.93-1.73
		c40.45-0.17,80.91-0.08,121.36-0.08C608.84,504.5,608.84,504.12,608.84,503.74z M1279.97,508.32c-0.55-1.66-0.57-2.09-0.79-2.33
		c-22.04-23.55-43.92-47.25-66.34-70.44c-3.18-3.29-8.89-5.51-13.55-5.73c-23.71-1.15-47.46-1.48-71.2-2.06
		c-0.47-0.01-0.95,0.38-1.66,0.68c-2.1,26.42-4.2,52.84-6.36,79.89C1173.99,508.32,1226.65,508.32,1279.97,508.32z"/>
	<path fill="#F6F6F6" d="M811.54,677.75c-0.05,39.16-38.84,72.92-78.21,71.11c-37.76-1.74-65.94-36.98-58.49-74.08
		c6.8-33.89,34.16-59.27,67.72-62.82c29.55-3.13,60.72,18.04,66.9,45.86C810.91,664.31,810.89,671.1,811.54,677.75z M746.44,647.33
		c-21.56,0.06-38.08,16.6-37.38,37.44c0.55,16.51,12.73,28.64,29.2,29.1c16.67,0.46,30.89-9.67,36.74-26.18
		C782.05,667.77,767.53,647.27,746.44,647.33z"/>
	<path fill="#F6F6F6" d="M1184.34,748.88c-37.51-0.05-66.01-31.68-62.23-69.05c3.32-32.81,32.11-63.4,64.07-67.17
		c24.49-2.89,45.98,3.93,61.24,24.1c15.4,20.36,16.02,42.98,6.24,65.94C1241.8,730.49,1213.76,748.92,1184.34,748.88z
		 M1194.45,647.27c-20.17-0.26-37.5,16.12-37.76,35.67c-0.22,16.49,13.91,30.67,30.71,30.81c20.6,0.18,36.98-15.6,37.29-35.83
		C1224.93,662.67,1213.46,646.58,1194.45,647.27z"/>
</g>
</svg>
