<svg xmlns="http://www.w3.org/2000/svg" version="1.0" width="512.000000pt" height="512.000000pt" viewBox="0 0 512.000000 512.000000" preserveAspectRatio="xMidYMid meet">

<g transform="translate(0.000000,512.000000) scale(0.100000,-0.100000)" fill="#000000" stroke="none">
<path d="M1371 4644 c-647 -266 -1166 -484 -1179 -497 -55 -51 -52 46 -52 -1587 0 -1633 -3 -1536 52 -1587 32 -31 2327 -973 2369 -973 33 0 2305 927 2349 959 14 10 35 33 48 51 l22 33 0 1517 0 1517 -22 33 c-13 18 -34 41 -48 51 -48 34 -2316 959 -2351 959 -21 -1 -472 -181 -1188 -476z m1465 30 c143 -58 262 -109 266 -113 8 -7 -1779 -787 -1796 -783 -22 6 -581 236 -589 242 -9 7 1809 758 1839 759 12 1 138 -47 280 -105z m1142 -470 c238 -97 429 -180 425 -184 -4 -4 -421 -176 -925 -383 l-917 -376 -402 165 c-222 91 -409 168 -415 172 -7 4 160 82 384 180 218 95 622 271 897 392 275 120 505 217 510 216 6 -2 205 -84 443 -182z m-3152 -577 l349 -143 5 -445 c5 -414 6 -446 24 -476 60 -99 217 -93 274 10 15 28 18 76 22 404 l5 371 445 -183 445 -183 3 -1291 2 -1291 -44 18 c-24 9 -460 188 -969 397 l-927 380 0 1288 c0 725 4 1287 9 1287 5 0 165 -64 357 -143z m3834 -1144 l0 -1288 -238 -97 c-174 -71 -1587 -652 -1690 -695 -10 -4 -12 254 -10 1287 l3 1292 955 393 c525 216 961 394 968 394 9 1 12 -263 12 -1286z"/>
</g>
</svg>