<svg xmlns="http://www.w3.org/2000/svg" xmlns:xlink="http://www.w3.org/1999/xlink" version="1.1" id="Layer_1" x="0px" y="0px" width="100%" viewBox="0 0 512 512" enable-background="new 0 0 512 512" xml:space="preserve">
<path fill="#4CAF50" opacity="1.000000" stroke="none" d=" M513.000000,235.000000   C513.000000,249.354233 513.000000,263.708466 512.621094,278.730103   C511.129333,288.664093 510.708344,298.078125 508.771179,307.169067   C503.432190,332.224731 494.977783,356.161407 482.756683,378.844482   C466.861725,408.346588 445.804047,433.549927 420.301758,454.921844   C403.301422,469.168793 384.502411,480.894836 364.127594,490.072784   C340.656982,500.645325 316.417969,508.145905 290.796356,511.043335   C286.841064,511.490631 282.931000,512.337769 279.000000,513.000000   C264.645782,513.000000 250.291550,513.000000 235.272842,512.622803   C229.523605,511.816711 224.294876,512.000610 219.380692,510.845856   C203.742447,507.171143 188.100616,503.411133 172.687149,498.907318   C155.572662,493.906494 139.783096,485.809937 124.660912,476.368591   C120.360153,473.683502 116.301086,470.838501 110.202637,472.880371   C82.313835,482.217926 54.247559,491.025299 26.246902,500.028931   C23.275692,500.984344 20.316689,501.977692 16.853111,503.117676   C27.277702,472.168549 37.382774,441.980347 47.683731,411.859131   C48.784760,408.639587 48.860931,406.199707 46.797749,403.371246   C34.829494,386.963806 25.385443,369.162476 18.057182,350.238556   C10.562588,330.885071 5.099524,311.018097 2.954638,290.303619   C2.561720,286.508972 1.664457,282.766541 1.000000,279.000000   C1.000000,264.645782 1.000000,250.291550 1.378968,235.269928   C2.870724,225.335861 3.291744,215.921814 5.228880,206.830795   C10.567798,181.775162 18.904995,157.777924 31.270456,135.169434   C46.413631,107.482307 65.773979,83.382217 89.650948,62.770008   C107.933220,46.987514 127.924240,34.030201 149.888947,23.964209   C173.292374,13.238871 197.582153,5.854039 223.203690,2.956632   C227.158951,2.509351 231.069031,1.662218 235.000000,1.000000   C249.354233,1.000000 263.708466,1.000000 278.730103,1.378975   C291.679535,3.538488 304.158447,4.474444 316.201141,7.281752   C338.751221,12.538479 360.200104,20.970991 380.584869,32.137257   C409.351929,47.895172 433.994659,68.682648 454.932892,93.687729   C469.180115,110.702232 480.801025,129.558517 490.067780,149.871857   C500.759033,173.307907 508.090515,197.597473 511.042206,223.203735   C511.498077,227.158508 512.337769,231.069016 513.000000,235.000000  M208.975113,187.609787   C208.279434,185.917435 207.600082,184.218170 206.885574,182.533798   C198.961456,163.853821 191.184753,145.108200 182.943573,126.569069   C181.667282,123.697960 178.570923,120.243294 175.780838,119.671616   C161.409653,116.727028 147.011765,116.498650 135.111832,126.927452   C125.483887,135.365143 118.285286,145.760483 113.845619,157.916214   C104.630318,183.147583 107.766953,207.599991 118.187004,231.709320   C125.790466,249.301819 136.922791,264.665497 148.113281,279.999146   C190.369293,337.900055 244.392044,378.944519 314.905579,396.409729   C330.494476,400.270874 346.092743,402.352570 361.661133,396.978973   C397.879486,384.477783 410.206665,367.017548 411.267670,333.642792   C411.435791,328.354553 409.541260,324.771667 404.709167,322.475220   C385.627045,313.406525 366.675873,304.058624 347.518585,295.153198   C337.729126,290.602478 332.038239,292.490143 325.529297,301.239258   C320.261383,308.320160 315.061920,315.455658 309.639557,322.417023   C303.322815,330.526672 297.192505,332.369690 287.737885,328.447388   C279.607727,325.074524 271.529175,321.427460 263.848755,317.146515   C231.928986,299.354950 207.634567,273.745331 188.693741,242.778305   C183.733521,234.668655 183.916183,231.615128 190.069702,224.486847   C194.968567,218.811981 200.185760,213.398331 204.864594,207.551025   C209.324432,201.977432 212.926788,195.915741 208.975113,187.609787  z"/>
<path fill="#F9FAF9" opacity="1.000000" stroke="none" d=" M209.106720,187.980453   C212.926788,195.915741 209.324432,201.977432 204.864594,207.551025   C200.185760,213.398331 194.968567,218.811981 190.069702,224.486847   C183.916183,231.615128 183.733521,234.668655 188.693741,242.778305   C207.634567,273.745331 231.928986,299.354950 263.848755,317.146515   C271.529175,321.427460 279.607727,325.074524 287.737885,328.447388   C297.192505,332.369690 303.322815,330.526672 309.639557,322.417023   C315.061920,315.455658 320.261383,308.320160 325.529297,301.239258   C332.038239,292.490143 337.729126,290.602478 347.518585,295.153198   C366.675873,304.058624 385.627045,313.406525 404.709167,322.475220   C409.541260,324.771667 411.435791,328.354553 411.267670,333.642792   C410.206665,367.017548 397.879486,384.477783 361.661133,396.978973   C346.092743,402.352570 330.494476,400.270874 314.905579,396.409729   C244.392044,378.944519 190.369293,337.900055 148.113281,279.999146   C136.922791,264.665497 125.790466,249.301819 118.187004,231.709320   C107.766953,207.599991 104.630318,183.147583 113.845619,157.916214   C118.285286,145.760483 125.483887,135.365143 135.111832,126.927452   C147.011765,116.498650 161.409653,116.727028 175.780838,119.671616   C178.570923,120.243294 181.667282,123.697960 182.943573,126.569069   C191.184753,145.108200 198.961456,163.853821 206.885574,182.533798   C207.600082,184.218170 208.279434,185.917435 209.106720,187.980453  z"/>
</svg>